<svg xmlns="http://www.w3.org/2000/svg" viewBox="0 0 760 320" width="760" height="320">
  <rect width="760" height="320" rx="10" fill="#fbfaf7"/>
  <g fill="#c9c6c0">
    <rect x="48" y="52" width="560" height="10" rx="5"/>
    <rect x="48" y="82" width="620" height="10" rx="5"/>
    <rect x="48" y="112" width="500" height="10" rx="5"/>
    <rect x="48" y="192" width="600" height="10" rx="5"/>
    <rect x="48" y="222" width="540" height="10" rx="5"/>
    <rect x="48" y="252" width="360" height="10" rx="5"/>
  </g>
  <rect x="36" y="140" width="644" height="34" rx="8" fill="#ffe0a3"/>
  <g fill="#6b5a35">
    <rect x="48" y="152" width="120" height="10" rx="5"/>
    <rect x="248" y="152" width="150" height="10" rx="5"/>
    <rect x="418" y="152" width="200" height="10" rx="5"/>
  </g>
  <rect x="180" y="146" width="56" height="22" rx="5" fill="#f0a23c"/>
  <rect x="186" y="152" width="44" height="10" rx="5" fill="#3b2a0e"/>
  <g stroke="#f0a23c" stroke-width="2" fill="none">
    <path d="M700 157 h28"/>
    <path d="M714 143 v28"/>
  </g>
  <text x="36" y="300" font-family="Segoe UI, PingFang SC, sans-serif" font-size="14" fill="#8c877f">
    当前行高亮 · 当前词更亮 · 其余文字变淡
  </text>
</svg>
